<?xml version="1.0" encoding="UTF-8" standalone="no"?>
<!-- Generator: Adobe Illustrator 23.0.0, SVG Export Plug-In . SVG Version: 6.00 Build 0)  -->

<svg
   xmlns:dc="http://purl.org/dc/elements/1.1/"
   xmlns:cc="http://creativecommons.org/ns#"
   xmlns:rdf="http://www.w3.org/1999/02/22-rdf-syntax-ns#"
   xmlns:svg="http://www.w3.org/2000/svg"
   xmlns="http://www.w3.org/2000/svg"
   xmlns:sodipodi="http://sodipodi.sourceforge.net/DTD/sodipodi-0.dtd"
   xmlns:inkscape="http://www.inkscape.org/namespaces/inkscape"
   version="1.1"
   id="Capa_1"
   x="0px"
   y="0px"
   viewBox="0 0 270.23999 411.73087"
   xml:space="preserve"
   sodipodi:docname="logoMarca.svg"
   width="270.23999"
   height="411.73087"
   inkscape:version="0.92.1 r15371"><metadata
     id="metadata5552"><rdf:RDF><cc:Work
         rdf:about=""><dc:format>image/svg+xml</dc:format><dc:type
           rdf:resource="http://purl.org/dc/dcmitype/StillImage" /><dc:title></dc:title></cc:Work></rdf:RDF></metadata><defs
     id="defs5550" /><sodipodi:namedview
     pagecolor="#ffffff"
     bordercolor="#666666"
     borderopacity="1"
     objecttolerance="10"
     gridtolerance="10"
     guidetolerance="10"
     inkscape:pageopacity="0"
     inkscape:pageshadow="2"
     inkscape:window-width="1920"
     inkscape:window-height="986"
     id="namedview5548"
     showgrid="false"
     inkscape:zoom="0.67256651"
     inkscape:cx="-362.28296"
     inkscape:cy="518.59344"
     inkscape:window-x="-11"
     inkscape:window-y="-11"
     inkscape:window-maximized="1"
     inkscape:current-layer="Capa_1" /><style
     type="text/css"
     id="style5347">
	.st0{fill:#FFFFFF;}
	.st1{fill:#684981;}
</style><path
     class="st0"
     d="m 56.54,282.72086 c 10.02,0.23 10.18,-6.7 8.9,-16.02 -0.93,-6.72 -2.47,-6.63 0.77,-14.4 3.96,-9.51 20.45,-5.26 45.47,-7.12 13.79,-1.02 11.18,2.21 13.14,4.38 0,0 0.7,0.65 1.67,1.05 5.65,2.32 14.85,-1.76 14.85,-1.76 2.18,0.27 16.95,2.19 23.42,-0.39 2.54,-1.02 4.56,-2.08 5.91,-2.85 0,0 2.55,1.37 8.36,1.08 18.04,-0.9 31.72,1.23 39.01,-3 6.28,-3.64 8.01,-12.05 10.2,-31.42 2.3,-20.33 4.94,-70.13 -15.72,-93.1 -24.94,-27.730001 -19.97,-17.54 -38.55,-31.390001 -10.45,-7.78 -14.71,-11.62 -17.83,-20.32 -2.5,-6.97 -3.28,-23.94 -1.4,-31.88 6.08,-25.6699997 4.15,-32.3099997 0.69,-32.9299997 -5.4,-0.98 -11.06,21.6099997 -21.58,20.6899997 -3.86,-0.34 -5.43,-2.26 -11.39,-2.69 -5.7,-0.41 -7.75,1.73 -10.98,1.26 C 103.1,20.690859 100.35,0.13085931 94.54,8.5930542e-4 85.5,-0.20914069 86.75,38.130859 86.13,49.490859 c -0.62,11.34 4.55,7.51 4.1,37.16 -0.05,3.52 -1.35,17.930001 -0.99,23.130001 2.82,40.04 15.07,41.45 17.4,57.9 2.02,14.22 3.78,32.64 4.57,38.6 0.75,5.61 5.32,9.1 5.32,15.22 0,6.3 -52.29,-4.03 -66.79,14.25 -12.29,15.54 -8.89,46.61 6.8,46.97 z"
     id="path5509"
     inkscape:connector-curvature="0"
     style="fill:#ffffff" /><g
     id="g5523"
     transform="translate(-109.38,-556.29914)"><path
       class="st0"
       d="m 138.44,859.74 h 2.18 l -14.58,71.3 h -0.85 -0.19 -0.19 -0.85 l -14.58,-71.3 h 2.18 l 13.49,66.44 z"
       id="path5511"
       inkscape:connector-curvature="0"
       style="fill:#ffffff" /><path
       class="st0"
       d="m 186.54,929.55 v 0.89 0.99 h -27.97 v -0.99 -70.01 -1.09 h 27.57 v 1.09 0.79 h -25.49 v 37.49 h 19.93 v 0.99 0.89 h -19.93 v 28.96 z"
       id="path5513"
       inkscape:connector-curvature="0"
       style="fill:#ffffff" /><path
       class="st0"
       d="m 209.21,931.44 v -0.99 -71.1 h 1.04 1.04 v 70.21 h 26.58 v 0.89 0.99 z"
       id="path5515"
       inkscape:connector-curvature="0"
       style="fill:#ffffff" /><path
       class="st0"
       d="m 277.39,859.74 h 2.18 L 265,931.04 h -0.85 -0.19 -0.19 -0.85 l -14.58,-71.3 h 2.18 L 264,926.18 Z"
       id="path5517"
       inkscape:connector-curvature="0"
       style="fill:#ffffff" /><path
       class="st0"
       d="m 331.32,929.55 v 0.89 0.99 h -27.97 v -0.99 -70.01 -1.09 h 27.57 v 1.09 0.79 h -25.49 v 37.49 h 19.93 v 0.99 0.89 h -19.93 v 28.96 z"
       id="path5519"
       inkscape:connector-curvature="0"
       style="fill:#ffffff" /><path
       class="st0"
       d="m 361.27,861.33 h -16.46 v -0.89 -0.99 h 34.71 v 0.99 0.99 l 0.1,-0.1 h -16.26 v 70.11 h -1.09 -0.99 v -70.11 z"
       id="path5521"
       inkscape:connector-curvature="0"
       style="fill:#ffffff" /></g><g
     id="g5545"
     transform="translate(-109.38,-556.29914)"><path
       class="st0"
       d="m 131.78,941.9 c 2.87,0 5.85,0.63 7.46,1.47 v 9.35 c -1.75,-0.88 -3.96,-1.61 -6.3,-1.61 -3.57,0 -5.5,1.72 -5.5,4.06 0,2.35 1.93,4.03 5.5,4.03 2.35,0 4.69,-0.7 6.44,-1.68 v 8.93 c -1.65,0.88 -4.69,1.58 -7.7,1.58 -8.47,0 -14.67,-5.53 -14.67,-13.06 -0.01,-7.51 6.16,-13.07 14.77,-13.07 z"
       id="path5525"
       inkscape:connector-curvature="0"
       style="fill:#ffffff" /><path
       class="st0"
       d="m 142.24,942.28 h 10.43 v 7.84 h 5.25 v -7.84 h 10.43 v 25.35 h -10.43 v -9.24 h -5.25 v 9.24 h -10.43 z"
       id="path5527"
       inkscape:connector-curvature="0"
       style="fill:#ffffff" /><path
       class="st0"
       d="m 185.02,941.9 c 7.95,0 14.14,5.71 14.14,13.06 0,7.35 -6.2,13.06 -14.14,13.06 -7.95,0 -14.14,-5.71 -14.14,-13.06 -0.01,-7.36 6.19,-13.06 14.14,-13.06 z m 0,17.15 c 2.17,0 3.92,-1.75 3.92,-3.92 0,-2.17 -1.75,-3.92 -3.92,-3.92 -2.17,0 -3.92,1.75 -3.92,3.92 -0.01,2.17 1.74,3.92 3.92,3.92 z"
       id="path5529"
       inkscape:connector-curvature="0"
       style="fill:#ffffff" /><path
       class="st0"
       d="m 215.89,941.9 c 2.87,0 5.85,0.63 7.46,1.47 v 9.35 c -1.75,-0.88 -3.96,-1.61 -6.3,-1.61 -3.57,0 -5.5,1.72 -5.5,4.06 0,2.35 1.93,4.03 5.5,4.03 2.35,0 4.69,-0.7 6.44,-1.68 v 8.93 c -1.65,0.88 -4.69,1.58 -7.7,1.58 -8.47,0 -14.67,-5.53 -14.67,-13.06 -0.01,-7.51 6.15,-13.07 14.77,-13.07 z"
       id="path5531"
       inkscape:connector-curvature="0"
       style="fill:#ffffff" /><path
       class="st0"
       d="m 239.58,941.9 c 7.95,0 14.14,5.71 14.14,13.06 0,7.35 -6.2,13.06 -14.14,13.06 -7.95,0 -14.14,-5.71 -14.14,-13.06 0,-7.36 6.19,-13.06 14.14,-13.06 z m 0,17.15 c 2.17,0 3.92,-1.75 3.92,-3.92 0,-2.17 -1.75,-3.92 -3.92,-3.92 -2.17,0 -3.92,1.75 -3.92,3.92 0,2.17 1.75,3.92 3.92,3.92 z"
       id="path5533"
       inkscape:connector-curvature="0"
       style="fill:#ffffff" /><path
       class="st0"
       d="m 256.24,942.28 h 10.43 v 16.35 h 7.84 v 9 h -18.28 v -25.35 z"
       id="path5535"
       inkscape:connector-curvature="0"
       style="fill:#ffffff" /><path
       class="st0"
       d="m 285.57,942.28 h 9.98 l 9.66,25.35 h -11.27 l -0.88,-3.33 h -5.81 l -0.98,3.33 h -10.36 z m 5.81,15.65 -1.12,-5.15 h -0.07 l -1.12,5.15 z"
       id="path5537"
       inkscape:connector-curvature="0"
       style="fill:#ffffff" /><path
       class="st0"
       d="m 309.13,950.89 h -7.07 v -8.61 h 24.58 v 8.61 h -7.07 v 16.73 h -10.43 v -16.73 z"
       id="path5539"
       inkscape:connector-curvature="0"
       style="fill:#ffffff" /><path
       class="st0"
       d="m 329.35,942.28 h 18.24 v 8.47 h -7.81 v 1.37 h 6.3 v 6.02 h -6.3 v 1.44 h 8.3 v 8.05 h -18.73 z"
       id="path5541"
       inkscape:connector-curvature="0"
       style="fill:#ffffff" /><path
       class="st0"
       d="m 350.74,957.34 c 3.4,2.21 6.83,3.01 8.33,3.01 1.05,0 1.3,-0.42 1.3,-0.84 0,-0.49 -0.31,-0.7 -0.77,-0.81 -1.23,-0.32 -4.76,-0.7 -7.35,-2.98 -1.33,-1.19 -2.24,-2.84 -2.24,-5.29 0,-5.08 3.92,-8.54 10.33,-8.54 3.08,0 6.72,0.81 9.03,2 v 8.3 c -3.29,-1.65 -6.37,-2.24 -7.67,-2.24 -1.02,0 -1.3,0.39 -1.3,0.77 0,0.53 0.39,0.74 0.81,0.88 1.05,0.32 4.55,0.74 7.04,2.7 1.71,1.4 2.56,3.19 2.56,5.46 0,4.87 -3.92,8.26 -10.57,8.26 -3.19,0 -7,-0.77 -9.49,-2.07 v -8.61 z"
       id="path5543"
       inkscape:connector-curvature="0"
       style="fill:#ffffff" /></g></svg>