<?xml version="1.0" encoding="UTF-8" standalone="no"?>
<!-- Generator: Adobe Illustrator 23.0.0, SVG Export Plug-In . SVG Version: 6.00 Build 0)  -->

<svg
   xmlns:dc="http://purl.org/dc/elements/1.1/"
   xmlns:cc="http://creativecommons.org/ns#"
   xmlns:rdf="http://www.w3.org/1999/02/22-rdf-syntax-ns#"
   xmlns:svg="http://www.w3.org/2000/svg"
   xmlns="http://www.w3.org/2000/svg"
   xmlns:sodipodi="http://sodipodi.sourceforge.net/DTD/sodipodi-0.dtd"
   xmlns:inkscape="http://www.inkscape.org/namespaces/inkscape"
   version="1.1"
   id="Capa_1"
   x="0px"
   y="0px"
   viewBox="0 0 265.80642 400.82877"
   xml:space="preserve"
   sodipodi:docname="Logo.svg"
   width="265.80643"
   height="400.82877"
   inkscape:version="0.92.1 r15371"><metadata
     id="metadata4826"><rdf:RDF><cc:Work
         rdf:about=""><dc:format>image/svg+xml</dc:format><dc:type
           rdf:resource="http://purl.org/dc/dcmitype/StillImage" /><dc:title></dc:title></cc:Work></rdf:RDF></metadata><defs
     id="defs4824" /><sodipodi:namedview
     pagecolor="#ffffff"
     bordercolor="#666666"
     borderopacity="1"
     objecttolerance="10"
     gridtolerance="10"
     guidetolerance="10"
     inkscape:pageopacity="0"
     inkscape:pageshadow="2"
     inkscape:window-width="1920"
     inkscape:window-height="986"
     id="namedview4822"
     showgrid="false"
     inkscape:zoom="0.95115269"
     inkscape:cx="-46.096598"
     inkscape:cy="275.69732"
     inkscape:window-x="-11"
     inkscape:window-y="-11"
     inkscape:window-maximized="1"
     inkscape:current-layer="Capa_1" /><style
     type="text/css"
     id="style4621">
	.st0{fill:#FFFFFF;}
	.st1{fill:#684981;}
</style><path
     d="m 20.181288,400.82116 c 14.21,0.32 14.44,-9.49 12.62,-22.71 -1.31,-9.52 -3.5,-9.41 1.09,-20.42 5.62,-13.49 29,-7.46 64.47,-10.09 19.560002,-1.45 15.860002,3.14 18.630002,6.21 0,0 0.99,0.93 2.37,1.49 8,3.29 21.05,-2.49 21.05,-2.49 3.08,0.38 24.03,3.1 33.21,-0.56 3.61,-1.44 6.47,-2.95 8.38,-4.04 0,0 3.62,1.94 11.85,1.53 25.57,-1.28 44.97,1.74 55.31,-4.25 8.9,-5.16 11.35,-17.08 14.46,-44.55 3.27,-28.82 7,-99.42 -22.28,-131.99 -35.36,-39.32 -28.31,-24.87 -54.65,-44.5 -14.81,-11.04 -20.85,-16.48 -25.27,-28.810004 -3.54,-9.89 -4.64,-33.94 -1.98,-45.19 8.61,-36.39 5.88,-45.8099999 0.97,-46.6899999 -7.65,-1.38 -15.67,30.6399999 -30.59,29.3299999 -5.48,-0.48 -7.7,-3.21 -16.15,-3.81 -8.08,-0.58 -10.99,2.45 -15.570002,1.78 -11.88,-1.74 -15.78,-30.86999988 -24.02,-31.05999988 -12.82,-0.29 -11.04,54.05999988 -11.92,70.15999988 -0.88,16.07 6.45,10.65 5.81,52.680004 -0.08,5 -1.92,25.43 -1.4,32.79 4,56.77 21.36,58.77 24.67,82.08 2.86,20.17 5.36,46.27 6.48,54.73 1.06,7.95 7.540002,12.89 7.540002,21.59 0,8.93 -74.130002,-5.72 -94.690002,20.2 -17.4600003,22.04 -12.6300003,66.09 9.61,66.59 z"
     id="path4705"
     style="fill:#ffffff;fill-opacity:1" /></svg>